<svg width="1120" height="480" viewBox="0 0 1120 480" fill="none" xmlns="http://www.w3.org/2000/svg">
<path d="M403 179.17C411.58 179.17 419.12 180.557 425.62 183.33C432.207 186.017 437.363 189.743 441.09 194.51C444.903 199.19 447.763 204.39 449.67 210.11C451.577 215.83 452.53 221.94 452.53 228.44C452.53 243.173 449.583 254.137 443.69 261.33C437.797 268.437 430.43 271.99 421.59 271.99C412.663 271.99 407.55 268.437 406.25 261.33H405.86C400.66 267.917 393.943 271.21 385.71 271.21C378.95 271.21 373.62 268.87 369.72 264.19C365.907 259.423 364 253.227 364 245.6C364 236.5 366.643 228.917 371.93 222.85C377.303 216.697 383.977 213.62 391.95 213.62C401.137 213.62 407.117 217.217 409.89 224.41H410.15L410.41 221.55C410.93 216.61 412.967 214.14 416.52 214.14C418.34 214.14 419.64 214.747 420.42 215.96C421.287 217.087 421.633 218.473 421.46 220.12L418.47 249.76C418.123 253.313 418.383 255.827 419.25 257.3C420.117 258.773 421.763 259.51 424.19 259.51C428.437 259.51 432.163 256.737 435.37 251.19C438.577 245.557 440.18 238.233 440.18 229.22C440.18 217.693 436.973 208.42 430.56 201.4C424.147 194.293 414.527 190.74 401.7 190.74C385.233 190.74 371.843 196.027 361.53 206.6C351.303 217.173 346.19 231.257 346.19 248.85C346.19 262.803 350.003 273.637 357.63 281.35C365.343 289.063 376.003 292.92 389.61 292.92C393.51 292.92 397.627 292.313 401.96 291.1C406.293 289.887 408.763 289.28 409.37 289.28C410.93 289.28 412.143 289.757 413.01 290.71C413.877 291.75 414.31 293.007 414.31 294.48C414.31 297.253 412.793 299.377 409.76 300.85C405.167 303.277 398.233 304.49 388.96 304.49C371.453 304.49 357.89 299.377 348.27 289.15C338.65 279.01 333.84 265.62 333.84 248.98C333.84 228.093 340.123 211.237 352.69 198.41C365.343 185.583 382.113 179.17 403 179.17ZM406.64 239.36C406.64 234.42 405.47 230.693 403.13 228.18C400.877 225.58 397.67 224.28 393.51 224.28C388.917 224.28 385.017 226.273 381.81 230.26C378.69 234.16 377.13 239.057 377.13 244.95C377.13 249.63 378.257 253.443 380.51 256.39C382.763 259.25 385.883 260.68 389.87 260.68C394.637 260.68 398.623 258.73 401.83 254.83C405.037 250.843 406.64 245.687 406.64 239.36ZM491.158 194.38C488.038 197.327 483.792 198.8 478.418 198.8C473.045 198.8 468.755 197.327 465.548 194.38C462.342 191.433 460.738 187.36 460.738 182.16C460.738 176.96 462.342 172.887 465.548 169.94C468.755 166.993 473.045 165.52 478.418 165.52C483.792 165.52 488.038 166.993 491.158 169.94C494.365 172.887 495.968 176.96 495.968 182.16C495.968 187.36 494.365 191.433 491.158 194.38ZM478.418 276.41C473.132 276.41 469.015 274.98 466.068 272.12C463.122 269.173 461.648 265.1 461.648 259.9V224.15C461.648 218.95 463.122 214.92 466.068 212.06C469.015 209.113 473.132 207.64 478.418 207.64C483.618 207.64 487.648 209.113 490.508 212.06C493.455 214.92 494.928 218.95 494.928 224.15V259.9C494.928 265.1 493.455 269.173 490.508 272.12C487.648 274.98 483.618 276.41 478.418 276.41ZM537.968 277.58C525.488 277.58 516.042 274.33 509.628 267.83C503.302 261.33 500.138 252.793 500.138 242.22C500.138 230.867 503.692 222.113 510.798 215.96C517.992 209.72 527.092 206.6 538.098 206.6C545.378 206.6 551.142 207.9 555.388 210.5C559.722 213.273 561.888 217.087 561.888 221.94C561.888 225.147 560.892 227.877 558.898 230.13C556.992 232.297 554.522 233.38 551.488 233.38C549.842 233.38 548.065 233.077 546.158 232.47C544.252 231.777 542.432 231.43 540.698 231.43C537.925 231.43 535.672 232.427 533.938 234.42C532.292 236.327 531.468 238.883 531.468 242.09C531.468 245.297 532.292 247.897 533.938 249.89C535.672 251.797 537.925 252.75 540.698 252.75C542.432 252.75 544.252 252.447 546.158 251.84C548.065 251.147 549.842 250.8 551.488 250.8C554.522 250.8 556.992 251.927 558.898 254.18C560.892 256.347 561.888 259.033 561.888 262.24C561.888 267.267 559.635 271.123 555.128 273.81C551.055 276.323 545.335 277.58 537.968 277.58ZM602.152 277.58C590.365 277.58 581.049 274.373 574.202 267.96C567.442 261.547 564.062 252.967 564.062 242.22C564.062 231.3 567.485 222.633 574.332 216.22C581.179 209.807 590.409 206.6 602.022 206.6C613.635 206.6 622.865 209.807 629.712 216.22C636.645 222.633 640.112 231.3 640.112 242.22C640.112 252.967 636.689 261.547 629.842 267.96C623.082 274.373 613.852 277.58 602.152 277.58ZM602.022 250.54C605.749 250.54 607.612 247.723 607.612 242.09C607.612 236.457 605.749 233.64 602.022 233.64C598.295 233.64 596.475 236.5 596.562 242.22C596.562 247.767 598.382 250.54 602.022 250.54ZM662.194 276.41C656.907 276.41 652.79 274.98 649.844 272.12C646.897 269.173 645.424 265.1 645.424 259.9V220.77C645.424 216.61 646.594 213.403 648.934 211.15C651.274 208.81 654.567 207.64 658.814 207.64C662.8 207.64 666.007 208.637 668.434 210.63C670.947 212.623 672.29 215.527 672.464 219.34V219.6H672.724C674.197 215.18 676.97 211.93 681.044 209.85C685.204 207.683 689.58 206.6 694.174 206.6C702.927 206.6 709.384 209.417 713.544 215.05C717.704 220.597 719.784 229.74 719.784 242.48V259.9C719.784 265.1 718.31 269.173 715.364 272.12C712.504 274.98 708.474 276.41 703.274 276.41C697.987 276.41 693.87 274.98 690.924 272.12C687.977 269.173 686.504 265.1 686.504 259.9V242.09C686.504 237.843 685.29 235.72 682.864 235.72C680.004 235.72 678.66 237.8 678.834 241.96L678.704 259.9C678.704 265.1 677.23 269.173 674.284 272.12C671.424 274.98 667.394 276.41 662.194 276.41ZM757.819 277.58C746.292 277.58 737.279 275.587 730.779 271.6C726.619 269 724.539 265.533 724.539 261.2C724.539 258.08 725.449 255.567 727.269 253.66C729.175 251.753 731.645 250.8 734.679 250.8C737.105 250.8 740.182 251.753 743.909 253.66C747.635 255.48 750.452 256.39 752.359 256.39C754.699 256.39 755.869 255.74 755.869 254.44C755.869 254.093 755.782 253.79 755.609 253.53C755.522 253.27 755.305 253.053 754.959 252.88C754.699 252.62 754.395 252.403 754.049 252.23C753.789 252.057 753.399 251.927 752.879 251.84C752.359 251.667 751.882 251.537 751.449 251.45C751.015 251.277 750.409 251.103 749.629 250.93C748.849 250.757 748.199 250.583 747.679 250.41C740.312 248.33 734.809 245.513 731.169 241.96C727.529 238.407 725.709 233.813 725.709 228.18C725.709 221.68 728.569 216.48 734.289 212.58C740.009 208.593 747.852 206.6 757.819 206.6C768.912 206.6 777.535 208.637 783.689 212.71C787.675 215.31 789.669 218.56 789.669 222.46C789.669 225.233 788.759 227.66 786.939 229.74C785.119 231.733 782.649 232.73 779.529 232.73C777.795 232.73 775.065 232.037 771.339 230.65C767.612 229.177 764.709 228.44 762.629 228.44C760.375 228.44 759.249 229.047 759.249 230.26C759.249 231.127 759.595 231.733 760.289 232.08C761.069 232.427 762.672 232.903 765.099 233.51C767.265 234.03 768.782 234.42 769.649 234.68C770.515 234.853 772.075 235.287 774.329 235.98C776.582 236.673 778.229 237.323 779.269 237.93C780.395 238.537 781.825 239.447 783.559 240.66C785.292 241.787 786.549 243.043 787.329 244.43C788.195 245.73 788.975 247.377 789.669 249.37C790.362 251.277 790.709 253.4 790.709 255.74C790.709 262.5 787.805 267.83 781.999 271.73C776.279 275.63 768.219 277.58 757.819 277.58Z" fill="#5A5A5A"/>
<g opacity="0.25">
<path d="M270 285C270 290.523 274.477 295 280 295C285.523 295 290 290.523 290 285V265H310V285C310 301.569 296.569 315 280 315C263.431 315 250 301.569 250 285V265H270V285Z" fill="#CD3838"/>
<path d="M265 245C267.761 245 270 247.239 270 250V260H250V250C250 247.239 252.239 245 255 245H265Z" fill="#CD3838"/>
<path d="M305 245C307.761 245 310 247.239 310 250V260H290V250C290 247.239 292.239 245 295 245H305Z" fill="#CD3838"/>
</g>
<g opacity="0.25">
<path d="M545 325C550.523 325 555 329.477 555 335V385C555 390.523 550.523 395 545 395H495C489.477 395 485 390.523 485 385V335C485 329.477 489.477 325 495 325H545ZM495 375V385H545V375L535 365L525 375L510 360L495 375ZM535 335C529.477 335 525 339.477 525 345C525 350.523 529.477 355 535 355C540.523 355 545 350.523 545 345C545 339.477 540.523 335 535 335Z" fill="#5A5A5A"/>
</g>
<g opacity="0.25">
<path d="M839.999 95C856.087 95 868.941 111.177 873.353 117.505C874.41 119.02 874.41 120.98 873.353 122.495C868.941 128.823 856.087 145 839.999 145C823.911 144.999 811.056 128.823 806.644 122.495C805.589 120.981 805.589 119.019 806.644 117.505C811.056 111.177 823.911 95.0007 839.999 95ZM839.999 105C831.715 105.001 824.999 111.716 824.999 120C824.999 128.284 831.715 134.999 839.999 135C848.283 135 854.999 128.284 854.999 120C854.999 111.716 848.283 105 839.999 105Z" fill="#A85DE9"/>
</g>
<g opacity="0.5">
<path d="M845 70C845 72.7614 842.761 75 840 75C837.239 75 835 72.7614 835 70V64.4971C836.616 64.8251 838.287 65 840 65C841.713 65 843.384 64.8251 845 64.4971V70Z" fill="#5A5A5A"/>
<path d="M852.5 5C853.881 5 855 6.11929 855 7.5V20H860C862.761 20 865 22.2386 865 25V30C865 32.7614 862.761 35 860 35V40C860 51.0457 851.046 60 840 60C828.954 60 820 51.0457 820 40V35C817.239 35 815 32.7614 815 30V25C815 22.2386 817.239 20 820 20H825V7.5C825 6.11929 826.119 5 827.5 5C828.881 5 830 6.11929 830 7.5V20H850V7.5C850 6.11929 851.119 5 852.5 5Z" fill="#5A5A5A"/>
</g>
<g opacity="0.25">
<path d="M852.5 325C856.642 325 860 328.358 860 332.5V353.789C866.03 357.825 870 364.699 870 372.5C870 384.926 859.926 395 847.5 395H832.5C820.074 395 810 384.926 810 372.5C810 364.699 813.97 357.825 820 353.789V332.5C820 328.358 823.358 325 827.5 325C831.642 325 835 328.358 835 332.5V350H845V332.5C845 328.358 848.358 325 852.5 325ZM837.5 380C836.119 380 835 381.119 835 382.5C835 383.881 836.119 385 837.5 385H842.5C843.881 385 845 383.881 845 382.5C845 381.119 843.881 380 842.5 380H837.5ZM827.5 365C826.119 365 825 366.119 825 367.5V377.5C825 378.881 826.119 380 827.5 380C828.881 380 830 378.881 830 377.5V367.5C830 366.119 828.881 365 827.5 365ZM852.5 365C851.119 365 850 366.119 850 367.5V377.5C850 378.881 851.119 380 852.5 380C853.881 380 855 378.881 855 377.5V367.5C855 366.119 853.881 365 852.5 365Z" fill="#2FA139"/>
</g>
<path d="M1050 435V415C1050 412.239 1052.24 410 1055 410H1075C1077.76 410 1080 412.239 1080 415C1080 417.761 1077.76 420 1075 420H1066.87L1100 453.931V445C1100 442.239 1102.24 440 1105 440C1107.76 440 1110 442.239 1110 445V466.211C1110 467.537 1109.47 468.813 1108.54 469.751C1107.6 470.688 1106.33 471.211 1105 471.211H1085C1082.24 471.211 1080 468.972 1080 466.211C1080 463.451 1082.24 461.211 1085 461.211H1093.12L1060 427.275V435C1060 437.761 1057.76 440 1055 440C1052.24 440 1050 437.761 1050 435Z" fill="#CD3838"/>
<g opacity="0.75">
<path d="M1000 425C1002.76 425 1005 427.239 1005 430V457.93L1016.46 446.465C1018.42 444.512 1021.58 444.512 1023.54 446.465C1025.49 448.417 1025.49 451.583 1023.54 453.535L1003.54 473.535L1003.15 473.877C1001.19 475.479 998.295 475.366 996.465 473.535L976.465 453.535C974.512 451.583 974.512 448.417 976.465 446.465C978.417 444.512 981.583 444.512 983.535 446.465L995 457.93V430C995 427.239 997.239 425 1000 425Z" fill="#A85DE9"/>
<path d="M1030 405C1032.76 405 1035 407.239 1035 410C1035 412.761 1032.76 415 1030 415H970C967.239 415 965 412.761 965 410C965 407.239 967.239 405 970 405H1030Z" fill="#A85DE9"/>
</g>
<g opacity="0.25">
<path d="M342.5 90C352.165 90 360 97.835 360 107.5V150H350V130H335V150H325V107.5C325 97.835 332.835 90 342.5 90ZM342.5 100C338.358 100 335 103.358 335 107.5V120H350V107.5C350 103.358 346.642 100 342.5 100Z" fill="#A85DE9"/>
<path d="M380 110C388.284 110 395 116.716 395 125V150H377.5C370.596 150 365 144.404 365 137.5C365 130.596 370.596 125 377.5 125H385C385 122.239 382.761 120 380 120H370V110H380ZM377.5 135C376.119 135 375 136.119 375 137.5C375 138.881 376.119 140 377.5 140H385V135H377.5Z" fill="#A85DE9"/>
</g>
<g opacity="0.5">
<path d="M785 405C790.523 405 795 409.477 795 415V465C795 470.523 790.523 475 785 475H735C729.477 475 725 470.523 725 465V415C725 409.477 729.477 405 735 405H785ZM742.5 445C735.596 445 730 450.596 730 457.5C730 464.404 735.596 470 742.5 470H757.5C761.642 470 765 466.642 765 462.5C765 458.358 761.642 455 757.5 455H754.751C753.593 449.294 748.547 445 742.5 445ZM772.5 410C766.453 410 761.407 414.294 760.249 420H752.5C748.358 420 745 423.358 745 427.5C745 431.642 748.358 435 752.5 435H782.5C786.642 435 790 431.642 790 427.5C790 424.162 787.819 421.334 784.805 420.361C783.789 414.478 778.674 410 772.5 410Z" fill="#2FA139"/>
</g>
<g opacity="0.5">
<path d="M830 405C835.523 405 840 409.477 840 415V420C840 424.142 836.642 427.5 832.5 427.5C831.119 427.5 830 428.619 830 430C830 431.381 831.119 432.5 832.5 432.5C835.318 432.5 837.909 431.554 840 429.98V440C840 446.904 834.404 452.5 827.5 452.5C826.119 452.5 825 453.619 825 455C825 456.381 826.119 457.5 827.5 457.5C832.4 457.5 836.823 455.481 840 452.236V465C840 470.523 835.523 475 830 475C824.822 475 820.565 471.064 820.054 466.021L820 465L819.229 464.98C811.303 464.579 805 458.026 805 450C805 443.961 808.573 438.765 813.716 436.387C811.424 434.121 810 430.978 810 427.5C810 421.453 814.294 416.407 820 415.249V415C820 409.477 824.477 405 830 405Z" fill="#3D64DD"/>
<path d="M855 405C860.523 405 865 409.477 865 415V415.249C870.706 416.407 875 421.453 875 427.5C875 430.979 873.573 434.121 871.279 436.387C876.425 438.764 880 443.96 880 450C880 458.026 873.697 464.579 865.771 464.98L865 465C865 470.523 860.523 475 855 475C849.477 475 845 470.523 845 465V452.236C848.177 455.481 852.6 457.5 857.5 457.5C858.881 457.5 860 456.381 860 455C860 453.619 858.881 452.5 857.5 452.5C850.596 452.5 845 446.904 845 440V429.98C847.091 431.554 849.682 432.5 852.5 432.5C853.881 432.5 855 431.381 855 430C855 428.619 853.881 427.5 852.5 427.5C848.358 427.5 845 424.142 845 420V415C845 409.477 849.477 405 855 405Z" fill="#3D64DD"/>
</g>
<g opacity="0.5">
<path d="M670 431.133C670.001 426.82 675.096 424.532 678.32 427.397L705.171 451.265C708.606 454.319 706.447 459.999 701.851 460H693.35L697.031 467.886C698.199 470.388 697.117 473.364 694.614 474.531C692.112 475.699 689.136 474.617 687.969 472.114L684.253 464.155L678.716 470.317C675.65 473.721 670 471.549 670 466.968V431.133Z" fill="#FEA900"/>
<path d="M660 430C662.761 430 665 432.239 665 435C665 437.761 662.761 440 660 440H655C652.239 440 650 437.761 650 435C650 432.239 652.239 430 655 430H660Z" fill="#FEA900"/>
<path d="M656.465 411.465C658.417 409.512 661.583 409.512 663.535 411.465L668.535 416.465C670.488 418.417 670.488 421.583 668.535 423.535C666.583 425.488 663.417 425.488 661.465 423.535L656.465 418.535C654.512 416.583 654.512 413.417 656.465 411.465Z" fill="#FEA900"/>
<path d="M680 405C682.761 405 685 407.239 685 410V415C685 417.761 682.761 420 680 420C677.239 420 675 417.761 675 415V410C675 407.239 677.239 405 680 405Z" fill="#FEA900"/>
</g>
<g opacity="0.5">
<path d="M600 405C619.33 405 635 420.67 635 440V441.113C634.999 448.782 628.782 454.999 621.113 455H615C612.445 455 610.122 454.033 608.354 452.456C605.966 454.061 603.093 455 600 455C591.716 455 585 448.284 585 440C585 431.716 591.716 425 600 425C608.284 425 615 431.716 615 440V445H621.113C623.259 444.999 624.999 443.259 625 441.113V440C625 426.193 613.807 415 600 415C586.193 415 575 426.193 575 440C575 453.807 586.193 465 600 465H605C607.761 465 610 467.239 610 470C610 472.761 607.761 475 605 475H600C580.67 475 565 459.33 565 440C565 420.67 580.67 405 600 405ZM600 435C597.239 435 595 437.239 595 440C595 442.761 597.239 445 600 445C602.761 445 605 442.761 605 440C605 437.239 602.761 435 600 435Z" fill="#CD3838"/>
</g>
<g opacity="0.5">
<path d="M550 465C552.761 465 555 467.239 555 470C555 472.761 552.761 475 550 475H490C487.239 475 485 472.761 485 470C485 467.239 487.239 465 490 465H550Z" fill="#A85DE9"/>
<path d="M520 405C522.761 405 525 407.239 525 410V437.93L536.465 426.465C538.417 424.512 541.583 424.512 543.535 426.465C545.488 428.417 545.488 431.583 543.535 433.535L523.535 453.535C522.597 454.473 521.326 455 520 455C518.674 455 517.403 454.473 516.465 453.535L496.465 433.535C494.512 431.583 494.512 428.417 496.465 426.465C498.417 424.512 501.583 424.512 503.535 426.465L515 437.93V410C515 407.239 517.239 405 520 405Z" fill="#A85DE9"/>
</g>
<g opacity="0.5">
<path d="M460 405C465.523 405 470 409.477 470 415V465C470 470.523 465.523 475 460 475H420C414.477 475 410 470.523 410 465V415C410 409.477 414.477 405 420 405H460ZM425 460C422.239 460 420 462.239 420 465C420 467.761 422.239 470 425 470C427.761 470 430 467.761 430 465C430 462.239 427.761 460 425 460ZM440 460C437.239 460 435 462.239 435 465C435 467.761 437.239 470 440 470H455C457.761 470 460 467.761 460 465C460 462.239 457.761 460 455 460H440ZM425 445C422.239 445 420 447.239 420 450C420 452.761 422.239 455 425 455C427.761 455 430 452.761 430 450C430 447.239 427.761 445 425 445ZM440 445C437.239 445 435 447.239 435 450C435 452.761 437.239 455 440 455C442.761 455 445 452.761 445 450C445 447.239 442.761 445 440 445ZM455 445C452.239 445 450 447.239 450 450C450 452.761 452.239 455 455 455C457.761 455 460 452.761 460 450C460 447.239 457.761 445 455 445ZM425 430C422.239 430 420 432.239 420 435C420 437.761 422.239 440 425 440C427.761 440 430 437.761 430 435C430 432.239 427.761 430 425 430ZM440 430C437.239 430 435 432.239 435 435C435 437.761 437.239 440 440 440C442.761 440 445 437.761 445 435C445 432.239 442.761 430 440 430ZM455 430C452.239 430 450 432.239 450 435C450 437.761 452.239 440 455 440C457.761 440 460 437.761 460 435C460 432.239 457.761 430 455 430ZM420 410C417.239 410 415 412.239 415 415V420C415 422.761 417.239 425 420 425H460C462.761 425 465 422.761 465 420V415C465 412.239 462.761 410 460 410H420Z" fill="#5A5A5A"/>
</g>
<g opacity="0.5">
<path d="M379.38 407.539C382.12 407.197 384.618 409.14 384.961 411.88C385.303 414.62 383.36 417.118 380.62 417.461L365 419.409V460C365 468.284 358.284 475 350 475C341.716 475 335 468.284 335 460C335 451.716 341.716 445 350 445C351.755 445 353.435 445.315 355 445.869V415C355 412.478 356.878 410.352 359.38 410.039L379.38 407.539Z" fill="#3D64DD"/>
</g>
<g opacity="0.5">
<path d="M226.465 416.465C228.417 414.512 231.582 414.512 233.535 416.465C235.488 418.418 235.488 421.583 233.535 423.535L193.535 463.535C191.582 465.488 188.417 465.488 186.465 463.535L166.465 443.535C164.512 441.583 164.512 438.418 166.465 436.465C168.417 434.512 171.582 434.512 173.535 436.465L190 452.93L226.465 416.465Z" fill="#FEA900"/>
</g>
<g opacity="0.75">
<path d="M130 430C130 421.716 123.284 415 115 415C106.716 415 99.9998 421.716 99.9998 430V455C99.9998 457.761 97.7612 460 94.9998 460C92.2383 460 89.9998 457.761 89.9998 455V430C89.9998 416.193 101.193 405 115 405C128.807 405 140 416.193 140 430V457.93L146.465 451.465C148.417 449.512 151.582 449.512 153.535 451.465C155.487 453.417 155.487 456.583 153.535 458.535L138.535 473.535C136.582 475.488 133.417 475.488 131.465 473.535L116.465 458.535C114.512 456.583 114.512 453.417 116.465 451.465C118.417 449.512 121.582 449.512 123.535 451.465L130 457.93V430Z" fill="#CD3838"/>
</g>
<path d="M32.5 405C47.6878 405 60 417.312 60 432.5C60 438.579 58.0222 444.193 54.6826 448.745L72.4658 462.974C74.0673 464.255 75 466.196 75 468.247C74.9995 471.976 71.9764 474.999 68.2471 475C66.1958 475 64.2553 474.067 62.9736 472.466L48.7451 454.683C44.1927 458.022 38.5787 460 32.5 460C17.3122 460 5 447.688 5 432.5C5 417.312 17.3122 405 32.5 405ZM32.5 415C22.835 415 15 422.835 15 432.5C15 442.165 22.835 450 32.5 450C42.165 450 50 442.165 50 432.5C50 422.835 42.165 415 32.5 415Z" fill="#A85DE9"/>
<path d="M1075 395H1050C1047.24 395 1045 392.761 1045 390V365H1075V395Z" fill="#A85DE9"/>
<path d="M1110 390C1110 392.761 1107.76 395 1105 395H1080V365H1110V390Z" fill="#A85DE9"/>
<path d="M1075 360H1045V335C1045 332.239 1047.24 330 1050 330H1075V360Z" fill="#A85DE9"/>
<path d="M1095 360H1080V345H1095V360Z" fill="#A85DE9"/>
<path d="M1115 360H1100V345H1115V360Z" fill="#A85DE9"/>
<path d="M1095 340H1080V325H1095V340Z" fill="#A85DE9"/>
<path d="M1110 325C1112.76 325 1115 327.239 1115 330V340H1100V325H1110Z" fill="#A85DE9"/>
<g opacity="0.75">
<path d="M965 325V350H970V345C970 339.477 974.477 335 980 335H995V380C995 385.523 990.523 390 985 390H980V395H1020V390H1015C1009.48 390 1005 385.523 1005 380V335H1020C1025.52 335 1030 339.477 1030 345V350H1035V325H965Z" fill="#5A5A5A"/>
</g>
<g opacity="0.5">
<path d="M927.5 325C931.642 325 935 328.358 935 332.5V337.08C943.83 340.938 950 349.748 950 360V385C950 390.178 946.064 394.435 941.021 394.946L940 395V377.5C940 370.596 934.404 365 927.5 365H912.5C905.596 365 900 370.596 900 377.5V395C894.477 395 890 390.523 890 385V360C890 349.748 896.17 340.938 905 337.08V332.5C905 328.358 908.358 325 912.5 325H927.5ZM907.5 350C906.119 350 905 351.119 905 352.5C905 353.881 906.119 355 907.5 355H932.5C933.881 355 935 353.881 935 352.5C935 351.119 933.881 350 932.5 350H907.5ZM912.5 330C911.119 330 910 331.119 910 332.5V335.498C911.615 335.17 913.288 335 915 335H925C926.712 335 928.385 335.17 930 335.498V332.5C930 331.119 928.881 330 927.5 330H912.5Z" fill="#3D64DD"/>
<path d="M927.5 370C931.642 370 935 373.358 935 377.5V395H905V377.5C905 373.358 908.358 370 912.5 370H927.5Z" fill="#3D64DD"/>
</g>
<g opacity="0.25">
<path d="M740 332.071C740 327.616 745.385 325.386 748.535 328.536L781.465 361.465C784.614 364.615 782.383 370 777.93 370H766.758L774.585 388.008C775.685 390.54 774.524 393.485 771.992 394.585C769.46 395.685 766.516 394.524 765.415 391.993L757.31 373.355L748.906 383.868C745.954 387.558 740.001 385.473 740 380.747V332.071Z" fill="#FEA900"/>
</g>
<g opacity="0.25">
<path d="M660 380.001H675V355.001H685V380.001H700V355.001H710V380.001C712.761 380.001 715 382.239 715 385.001V395.001H645V385.001C645 382.239 647.239 380.001 650 380.001V355.001H660V380.001Z" fill="#CD3838"/>
<path d="M677.52 321.417C679.056 320.539 680.944 320.539 682.48 321.417L712.48 338.56C714.038 339.45 715 341.107 715 342.901V350.001H645V342.901C645 341.107 645.962 339.45 647.52 338.56L677.52 321.417Z" fill="#CD3838"/>
</g>
<g opacity="0.25">
<path d="M615 330C619.517 330 623.33 333.065 624.57 337.178H624.59L633.486 365.234C634.488 368.393 635 371.686 635 375C635 383.284 628.284 390 620 390C611.716 390 605 383.284 605 375V370C605 367.239 602.761 365 600 365C597.239 365 595 367.239 595 370V375C595 383.284 588.284 390 580 390C571.716 390 565 383.284 565 375C565 371.687 565.509 368.393 566.509 365.234L575.391 337.178C576.587 332.995 580.433 330 585 330C590.523 330 595 334.477 595 340H605C605 334.477 609.477 330 615 330ZM580 365C574.477 365 570 369.477 570 375C570 380.523 574.477 385 580 385C585.523 385 590 380.523 590 375C590 369.477 585.523 365 580 365ZM620 365C614.477 365 610 369.477 610 375C610 380.523 614.477 385 620 385C625.523 385 630 380.523 630 375C630 369.477 625.523 365 620 365Z" fill="#A85DE9"/>
</g>
<g opacity="0.25">
<path d="M465 325C470.523 325 475 329.477 475 335V385C475 390.178 471.064 394.435 466.021 394.946L465 395H415L413.979 394.946C409.272 394.469 405.531 390.728 405.054 386.021L405 385V335C405 329.477 409.477 325 415 325H465ZM415 375V385H425V375H415ZM435 375V385H445V375H435ZM455 375V385H465V375H455ZM415 365H425V355H415V365ZM435 365H445V355H435V365ZM455 365H465V355H455V365ZM415 345H425V335H415V345ZM435 345H445V335H435V345ZM455 345H465V335H455V345Z" fill="#3D64DD"/>
</g>
<g opacity="0.25">
<path d="M301.465 326.466C303.417 324.513 306.583 324.513 308.535 326.466L318.535 336.466C319.473 337.403 320 338.675 320 340.001C320 341.327 319.473 342.598 318.535 343.536L308.535 353.536C306.583 355.488 303.417 355.488 301.465 353.536C299.512 351.583 299.513 348.418 301.465 346.466L302.808 345.123C292.794 346.215 285 354.696 285 365.001V390.001C285 390.345 284.964 390.682 284.897 391.007C284.831 391.331 284.735 391.645 284.609 391.944C283.851 393.74 282.072 395.001 280 395.001C277.239 395.001 275 392.762 275 390.001V365.001C275 354.696 267.206 346.215 257.192 345.123L258.535 346.466C260.488 348.418 260.488 351.583 258.535 353.536C256.583 355.488 253.417 355.488 251.465 353.536L241.465 343.536C240.527 342.598 240 341.327 240 340.001C240 338.675 240.527 337.403 241.465 336.466L251.465 326.466C253.417 324.513 256.583 324.513 258.535 326.466C260.488 328.418 260.488 331.583 258.535 333.536L256.997 335.079C266.605 335.711 274.972 340.864 280 348.428C285.028 340.864 293.395 335.711 303.003 335.079L301.465 333.536C299.512 331.583 299.513 328.418 301.465 326.466Z" fill="#FEA900"/>
</g>
<g opacity="0.5">
<path d="M188.215 383.215L176.785 371.785C169.239 364.239 165 354.005 165 343.333C165 337.998 167.12 332.88 170.893 329.108L172.682 327.318C173.962 326.038 176.038 326.038 177.318 327.318L187.452 337.452C188.974 338.974 189.351 341.298 188.388 343.223L181.612 356.777C180.649 358.702 181.026 361.027 182.548 362.548L197.452 377.452C198.974 378.974 201.298 379.351 203.223 378.388L216.777 371.612C218.702 370.649 221.026 371.027 222.548 372.548L232.682 382.682C233.962 383.962 233.962 386.038 232.682 387.318L230.893 389.108C227.12 392.88 222.002 395 216.667 395C205.995 395 195.761 390.761 188.215 383.215Z" fill="#CD3838"/>
</g>
<g opacity="0.75">
<path d="M120 325C121.326 325 122.597 325.527 123.535 326.465L138.535 341.465C140.488 343.417 140.488 346.583 138.535 348.535C136.582 350.488 133.417 350.488 131.465 348.535L125 342.07V377.93L131.465 371.465C133.417 369.512 136.582 369.512 138.535 371.465C140.488 373.417 140.488 376.583 138.535 378.535L123.535 393.535C121.582 395.488 118.417 395.488 116.465 393.535L101.465 378.535C99.5122 376.583 99.5121 373.417 101.465 371.465C103.417 369.512 106.582 369.512 108.535 371.465L115 377.93V342.07L108.535 348.535C106.582 350.488 103.417 350.488 101.465 348.535C99.5121 346.583 99.5121 343.417 101.465 341.465L116.465 326.465L116.831 326.133C117.721 325.404 118.839 325 120 325Z" fill="#A85DE9"/>
</g>
<path d="M40 325C55 325 65 335 65 350C65 365 50 380 40 395C30 380 15 365 15 350C15 335 25 325 40 325ZM40 337.5C36.6848 337.5 33.5063 338.818 31.1621 341.162C28.8179 343.506 27.5 346.685 27.5 350C27.5 353.315 28.8179 356.494 31.1621 358.838C33.5063 361.182 36.6848 362.5 40 362.5C43.3152 362.5 46.4937 361.182 48.8379 358.838C51.1821 356.494 52.5 353.315 52.5 350C52.5 346.685 51.1821 343.506 48.8379 341.162C46.4937 338.818 43.3152 337.5 40 337.5Z" fill="#5A5A5A"/>
<path d="M1067.5 252.5L1055 265L1050 260L1062.5 247.5C1063.88 246.119 1066.12 246.119 1067.5 247.5C1068.88 248.881 1068.88 251.119 1067.5 252.5Z" fill="#5A5A5A"/>
<path d="M1115 265H1100V275C1100 277.761 1097.76 280 1095 280H1085V290C1085 292.761 1082.76 295 1080 295H1070V305C1070 307.761 1067.76 310 1065 310H1045V300H1060V290C1060 287.239 1062.24 285 1065 285H1075V275C1075 272.239 1077.24 270 1080 270H1090V260C1090 257.239 1092.24 255 1095 255H1115V265Z" fill="#5A5A5A"/>
<path d="M1061.46 246.465C1063.42 244.512 1066.58 244.512 1068.54 246.465C1070.49 248.417 1070.49 251.583 1068.54 253.535L1062.07 260H1065C1067.76 260 1070 262.239 1070 265C1070 267.761 1067.76 270 1065 270H1050C1047.24 270 1045 267.761 1045 265V250C1045 247.239 1047.24 245 1050 245C1052.76 245 1055 247.239 1055 250V252.93L1061.46 246.465Z" fill="#5A5A5A"/>
<g opacity="0.75">
<path d="M995 250C995 247.239 997.239 245 1000 245C1002.76 245 1005 247.239 1005 250V297.93L1026.46 276.465C1028.42 274.512 1031.58 274.512 1033.54 276.465C1035.49 278.417 1035.49 281.583 1033.54 283.535L1003.54 313.535C1001.58 315.488 998.417 315.488 996.465 313.535L966.465 283.535C964.512 281.583 964.512 278.417 966.465 276.465C968.417 274.512 971.583 274.512 973.535 276.465L995 297.93V250Z" fill="#3D64DD"/>
</g>
<g opacity="0.5">
<path d="M903.376 285C909.794 285 915.001 290.203 915.002 296.621V298.506C915.002 302.609 913.133 306.494 909.928 309.058L909.035 309.775C904.806 313.158 899.548 315 894.133 315H888.468C886.762 315 885.556 313.328 886.095 311.709L892.35 292.949C893.932 288.204 898.374 285.001 903.376 285Z" fill="#2FA139"/>
<path d="M947.756 245C951.756 245.001 955.002 248.245 955.002 252.246C955.001 254.02 954.349 255.735 953.171 257.061L919.865 294.526C918.92 287.021 912.976 281.075 905.47 280.132L942.941 246.831C944.267 245.653 945.982 245 947.756 245Z" fill="#2FA139"/>
</g>
<g opacity="0.25">
<path d="M345 395H325V375H345V395Z" fill="#2FA139"/>
<path d="M370 395H350V375H370V395Z" fill="#2FA139"/>
<path d="M395 395H375V375H395V395Z" fill="#2FA139"/>
<path d="M370 370H350V367.07C350 365.745 350.527 364.473 351.465 363.535L363.535 351.465C364.473 350.527 365.745 350 367.07 350H370V370Z" fill="#2FA139"/>
<path d="M377.93 350C379.255 350 380.527 350.527 381.465 351.465L393.535 363.535C394.473 364.473 395 365.745 395 367.07V370H375V350H377.93Z" fill="#2FA139"/>
<path d="M345 327.93C345 329.255 344.473 330.527 343.535 331.465L331.465 343.535C330.527 344.473 329.255 345 327.93 345H325V325H345V327.93Z" fill="#2FA139"/>
</g>
<g opacity="0.5">
<path d="M195 315H170V270C170 256.193 181.193 245 195 245V315ZM190 280C187.239 280 185 282.239 185 285C185 287.761 187.239 290 190 290C192.761 290 195 287.761 195 285C195 282.239 192.761 280 190 280Z" fill="#A85DE9"/>
<path d="M205 245C218.807 245 230 256.193 230 270V315L205 305V245ZM210 275C207.239 275 205 277.239 205 280C205 282.761 207.239 285 210 285C212.761 285 215 282.761 215 280C215 277.239 212.761 275 210 275Z" fill="#A85DE9"/>
</g>
<g opacity="0.75">
<path d="M145 245C150.523 245 155 249.477 155 255V305C155 310.523 150.523 315 145 315H95C89.4772 315 85 310.523 85 305V255C85 249.477 89.4772 245 95 245H145ZM102.5 290C98.3579 290 95 293.358 95 297.5C95 301.642 98.3579 305 102.5 305C106.642 305 110 301.642 110 297.5C110 293.358 106.642 290 102.5 290ZM120 272.5C115.858 272.5 112.5 275.858 112.5 280C112.5 284.142 115.858 287.5 120 287.5C124.142 287.5 127.5 284.142 127.5 280C127.5 275.858 124.142 272.5 120 272.5ZM137.5 255C133.358 255 130 258.358 130 262.5C130 266.642 133.358 270 137.5 270C141.642 270 145 266.642 145 262.5C145 258.358 141.642 255 137.5 255Z" fill="#5A5A5A"/>
</g>
<path d="M55.5209 245.001C50.2804 244.953 45.2862 247.081 41.6002 250.837L41.5499 250.889L39.9598 252.557C38.0543 254.555 38.1297 257.72 40.1283 259.626C42.1269 261.531 45.2918 261.456 47.1973 259.457L48.76 257.818C50.5979 255.958 52.9963 254.978 55.4292 255C57.8726 255.023 60.267 256.055 62.0797 257.967C63.9005 259.888 64.9763 262.54 64.9996 265.364C65.0228 268.175 64.0008 270.837 62.2253 272.791L53.4668 282.031C52.474 283.079 51.296 283.872 50.0231 284.372C48.7511 284.873 47.402 285.076 46.063 284.975C44.7238 284.874 43.4082 284.469 42.2047 283.776C41.0002 283.081 39.9296 282.109 39.0788 280.909L30.9212 286.693C32.5874 289.043 34.728 291.008 37.2111 292.439C39.6953 293.871 42.4575 294.731 45.3096 294.946C48.162 295.162 51.0199 294.727 53.685 293.678C56.3488 292.63 58.7465 290.998 60.7244 288.91L69.5157 279.636L69.5748 279.572C73.1212 275.699 75.0428 270.563 74.9993 265.282C74.9558 260.001 72.9497 254.899 69.3373 251.088C65.7166 247.268 60.7611 245.049 55.5209 245.001Z" fill="#3D64DD"/>
<path d="M34.6904 265.054C31.838 264.838 28.9801 265.273 26.315 266.322C23.6511 267.37 21.2535 269.002 19.2756 271.09L10.4843 280.364L10.4252 280.428C6.87882 284.301 4.95722 289.437 5.00072 294.718C5.04423 299.999 7.05034 305.101 10.6627 308.912C14.2834 312.732 19.2389 314.951 24.4791 314.999C29.7196 315.047 34.7138 312.919 38.3998 309.163L38.4601 309.101L40.0315 307.443C41.9312 305.439 41.8465 302.274 39.8424 300.374C37.8383 298.475 34.6736 298.559 32.7739 300.563L31.2354 302.186C29.3981 304.044 27.0017 305.022 24.5708 305C22.1274 304.977 19.733 303.945 17.9203 302.033C16.0995 300.112 15.0236 297.46 15.0004 294.636C14.9772 291.825 15.9992 289.163 17.7747 287.209L26.5332 277.969C27.526 276.921 28.704 276.128 29.9769 275.628C31.2489 275.127 32.598 274.924 33.937 275.025C35.2762 275.126 36.5918 275.531 37.7953 276.224C38.9998 276.919 40.0704 277.891 40.9212 279.091L49.0788 273.307C47.4126 270.957 45.272 268.992 42.7889 267.561C40.3047 266.129 37.5425 265.269 34.6904 265.054Z" fill="#3D64DD"/>
<path d="M1093.23 216.768L1081.21 228.789L1080.45 229.512C1076.56 233.035 1071.49 235 1066.21 235C1054.5 234.999 1045 225.503 1045 213.789C1045 208.164 1047.23 202.767 1051.21 198.789L1063.23 186.768L1093.23 216.768Z" fill="#3D64DD"/>
<path d="M1093.79 165C1105.5 165.001 1115 174.497 1115 186.211C1115 189.377 1114.29 192.469 1112.96 195.278C1112.23 196.838 1111.3 198.31 1110.2 199.658C1109.75 200.196 1109.29 200.715 1108.79 201.211L1096.77 213.232L1066.77 183.232L1078.79 171.211C1079.29 170.715 1079.8 170.246 1080.34 169.805C1081.42 168.921 1082.58 168.151 1083.8 167.5C1084.27 167.246 1084.76 167.014 1085.25 166.797C1087.29 165.903 1089.46 165.324 1091.69 165.103C1092.38 165.033 1093.08 165 1093.79 165Z" fill="#3D64DD"/>
<g opacity="0.75">
<path d="M1000 175C1004.5 175 1008.72 176.195 1012.37 178.276C1023.3 175.045 1031.99 175.407 1034.64 180C1037.29 184.594 1033.26 192.296 1025 200.146C1024.92 213.886 1013.76 224.999 1000 225C995.499 225 991.278 223.802 987.629 221.719C976.699 224.949 968.011 224.593 965.358 220C962.707 215.406 966.738 207.699 975.002 199.849C975.083 186.111 986.245 175 1000 175ZM1023.48 180.669C1022.17 178.406 1018.37 177.863 1013.21 178.784C1015.25 180.056 1017.11 181.617 1018.71 183.423C1018.67 183.51 1015.22 191.212 999.997 200C984.69 208.837 976.286 207.915 976.286 207.915C975.522 205.627 975.092 203.242 975.011 200.84C971.637 204.845 970.211 208.405 971.515 210.669C974.277 215.452 988.149 212.614 1002.5 204.331C1016.85 196.047 1026.24 185.452 1023.48 180.669Z" fill="#2FA139"/>
</g>
<g opacity="0.5">
<path d="M920 165C939.33 165 955 180.67 955 200C955 219.33 939.33 235 920 235C900.67 235 885 219.33 885 200C885 180.67 900.67 165 920 165ZM920 215C917.239 215 915 217.239 915 220C915 222.761 917.239 225 920 225C922.761 225 925 222.761 925 220C925 217.239 922.761 215 920 215ZM922.925 175.288C920.016 174.71 916.998 175.007 914.258 176.143C911.518 177.278 909.177 179.2 907.529 181.665C905.995 183.961 906.611 187.069 908.906 188.604C911.202 190.137 914.306 189.517 915.84 187.222C916.389 186.4 917.173 185.759 918.086 185.381C918.999 185.002 920.007 184.905 920.977 185.098C921.946 185.291 922.836 185.766 923.535 186.465C924.234 187.164 924.709 188.054 924.902 189.023C925.095 189.993 924.998 191 924.619 191.914C924.241 192.827 923.6 193.606 922.778 194.155C922.655 194.238 922.527 194.319 922.397 194.39C920.842 195.24 919.098 196.452 917.69 198.096C916.261 199.764 915 202.1 915 205L915.024 205.513C915.281 208.033 917.412 210 920 210C922.588 210 924.719 208.033 924.976 205.513L924.995 205.054C924.988 205.077 924.998 204.932 925.283 204.6C925.666 204.153 926.326 203.638 927.192 203.164C927.582 202.951 927.964 202.718 928.335 202.471C930.8 200.823 932.722 198.481 933.857 195.742C934.993 193.002 935.29 189.984 934.712 187.075C934.133 184.166 932.703 181.492 930.605 179.395C928.508 177.297 925.834 175.867 922.925 175.288Z" fill="#FEA900"/>
</g>
<g opacity="0.5">
<path d="M895.074 463.107C895.352 464.219 896.354 465.002 897.5 465.002H910C911.147 465.001 912.148 464.219 912.427 463.107L914.453 455.002H925.547L927.574 463.107C927.852 464.219 928.854 465.002 930 465.002H942.5C943.647 465.001 944.648 464.219 944.927 463.107L946.953 455.002H950V460.534C949.999 463.3 948.528 465.859 946.138 467.252C929.986 476.674 910.014 476.674 893.863 467.252C891.473 465.859 890.001 463.3 890 460.534V455.002H893.047L895.074 463.107Z" fill="#5A5A5A"/>
<path d="M950 450.002H945C943.853 450.002 942.852 450.783 942.574 451.896L940.547 460.002H931.953L929.927 451.896C929.649 450.783 928.647 450.002 927.5 450.002H912.5C911.353 450.002 910.352 450.783 910.074 451.896L908.047 460.002H899.453L897.427 451.896C897.149 450.783 896.147 450.002 895 450.002H890V445.002C890 443.539 890.111 442.101 890.313 440.695L884.815 437.643C882.403 436.302 881.531 433.259 882.871 430.846L885.303 426.471C886.644 424.059 889.687 423.189 892.1 424.528L896.167 426.784C897.641 424.859 899.342 423.12 901.231 421.603L899.16 414.367C898.402 411.712 899.943 408.944 902.598 408.185L907.408 406.813C910.062 406.055 912.826 407.591 913.584 410.246L915.059 415.407C916.666 415.14 918.317 415.002 920 415.002C921.682 415.002 923.331 415.141 924.937 415.407L926.416 410.246C927.175 407.59 929.943 406.054 932.598 406.813L937.408 408.185C940.061 408.945 941.599 411.712 940.84 414.367L938.765 421.603C940.627 423.098 942.306 424.809 943.765 426.701L947.896 424.411C950.309 423.07 953.351 423.937 954.693 426.349L957.124 430.719C958.465 433.133 957.595 436.18 955.181 437.521L949.668 440.578C949.882 442.021 950 443.499 950 445.002V450.002ZM905 445.002C907.761 445.001 909.999 442.762 910 440.002C910 437.24 907.762 435.002 905 435.002C902.239 435.002 900 437.24 900 440.002C900.001 442.762 902.239 445.002 905 445.002ZM935 445.002C937.761 445.001 939.999 442.762 940 440.002C940 437.24 937.762 435.002 935 435.002C932.239 435.002 930 437.24 930 440.002C930.001 442.762 932.239 445.002 935 445.002Z" fill="#5A5A5A"/>
</g>
<g opacity="0.5">
<path d="M275 415C278.507 415 281.872 415.603 285 416.709V425L283.228 426.772C280.717 425.638 277.934 425 275 425C263.954 425 255 433.954 255 445C255 456.046 263.954 465 275 465C286.046 465 295 456.046 295 445C295 442.066 294.362 439.283 293.228 436.772L295 435H303.286C304.392 438.128 305 441.493 305 445C305 461.569 291.569 475 275 475C258.431 475 245 461.569 245 445C245 428.431 258.431 415 275 415Z" fill="#2FA139"/>
<path d="M303.818 412.642L305.732 410.732C306.709 409.756 308.291 409.756 309.268 410.732C310.244 411.709 310.244 413.291 309.268 414.268L307.354 416.177L315 420L305 430H293.53L283.604 439.927C284.483 441.416 285 443.145 285 445C285 450.523 280.523 455 275 455C269.477 455 265 450.523 265 445C265 439.477 269.477 435 275 435C276.852 435 278.581 435.514 280.068 436.392L290 426.46V415L300 405L303.818 412.642Z" fill="#2FA139"/>
</g>
<path d="M1091.3 137.5L1100.17 148.594C1094.47 152.624 1087.51 155 1080 155C1072.48 155 1065.53 152.625 1059.82 148.594L1068.7 137.5H1091.3Z" fill="#2FA139"/>
<path d="M1046.57 109.819L1057.99 114.385L1064.69 134.497L1055.95 145.42C1049.21 139.04 1045 130.014 1045 120C1045 116.45 1045.53 113.024 1046.51 109.795L1046.57 109.819Z" fill="#2FA139"/>
<path d="M1113.48 109.795C1114.46 113.024 1115 116.449 1115 120C1115 130.015 1110.79 139.04 1104.04 145.42L1095.3 134.497L1102.01 114.385L1113.43 109.819L1113.48 109.795Z" fill="#2FA139"/>
<path d="M1097.06 113.418L1090.7 132.5H1069.3L1062.94 113.418L1080 100.625L1097.06 113.418Z" fill="#2FA139"/>
<path d="M1077.5 96.2451L1059.62 109.653L1048.43 105.181L1048.31 105.132C1053.57 93.9508 1064.56 86.0111 1077.5 85.0977V96.2451Z" fill="#2FA139"/>
<path d="M1082.5 85.0977C1095.44 86.0111 1106.43 93.9517 1111.68 105.132L1111.57 105.181L1100.38 109.653L1082.5 96.2451V85.0977Z" fill="#2FA139"/>
<g opacity="0.5">
<path d="M194.961 167.939C198.075 166.123 201.925 166.123 205.039 167.939L225.039 179.606C228.111 181.398 230 184.687 230 188.244V211.756C230 215.313 228.111 218.602 225.039 220.394L205.039 232.061C201.925 233.877 198.075 233.877 194.961 232.061L174.961 220.394C171.889 218.602 170 215.313 170 211.756V188.244C170 184.687 171.889 181.398 174.961 179.606L194.961 167.939Z" fill="#5A5A5A"/>
</g>
<g opacity="0.75">
<path d="M135 185V234.087C133.71 234.675 132.304 235 130.859 235H95C89.4772 235 85 230.523 85 225V189.141C85.0002 187.696 85.3253 186.29 85.9131 185H135Z" fill="#3D64DD"/>
<path d="M153.604 169.927C154.483 171.416 155 173.145 155 175V210.859C155 213.511 153.945 216.055 152.07 217.93L140 230V183.535L153.604 169.927Z" fill="#3D64DD"/>
<path d="M145 165C146.852 165 148.581 165.514 150.068 166.392L136.465 180H90L102.07 167.93C103.945 166.055 106.489 165 109.141 165H145Z" fill="#3D64DD"/>
</g>
<g clip-path="url(#clip0_346_13262)">
<path d="M39.9988 200C41.8925 200 43.6244 201.07 44.4715 202.764L59.4715 232.764C60.7064 235.234 59.705 238.238 57.2351 239.473C54.7654 240.707 51.7609 239.706 50.5261 237.236L47.5818 231.348L26.8543 239.644C24.9275 240.413 22.7221 239.911 21.3172 238.384C19.9137 236.856 19.5986 234.619 20.5261 232.764L35.5261 202.764L35.8826 202.158C36.807 200.819 38.342 200 39.9988 200ZM35.3504 225.469L43.0945 222.373L39.9988 216.182L35.3504 225.469Z" fill="#2FA139"/>
<path d="M39.9988 180C42.6315 180 45.2187 180.696 47.4988 182.012C49.7782 183.328 51.6708 185.221 52.9871 187.5C54.3676 189.891 53.5516 192.95 51.1609 194.331C48.7697 195.711 45.7105 194.891 44.3299 192.5C43.891 191.74 43.2587 191.108 42.4988 190.669C41.739 190.231 40.876 190 39.9988 190C39.1217 190 38.2584 190.23 37.4988 190.669C36.7391 191.108 36.1064 191.74 35.6677 192.5C34.2868 194.891 31.2278 195.712 28.8367 194.331C26.4469 192.95 25.6306 189.891 27.0105 187.5C28.3267 185.221 30.2197 183.328 32.4988 182.012C34.7787 180.695 37.3662 180 39.9988 180Z" fill="#2FA139"/>
<path d="M39.9988 160C46.142 160 52.1785 161.616 57.4988 164.688C62.8193 167.759 67.2394 172.18 70.3113 177.5C71.6914 179.891 70.8714 182.95 68.4803 184.331C66.0889 185.711 63.0297 184.891 61.6492 182.5C59.455 178.7 56.299 175.544 52.4988 173.35C48.6985 171.156 44.3869 170 39.9988 170C35.6108 170 31.2989 171.156 27.4988 173.35C23.6988 175.544 20.5424 178.7 18.3484 182.5C16.9676 184.891 13.9087 185.712 11.5174 184.331C9.12706 182.95 8.30675 179.891 9.6863 177.5C12.758 172.18 17.1785 167.759 22.4988 164.688C27.819 161.616 33.8557 160 39.9988 160Z" fill="#2FA139"/>
</g>
<g opacity="0.75">
<path d="M991.348 115C993.077 117.987 996.3 120 1000 120C1003.7 120 1006.92 117.987 1008.65 115H1025V140C1025 148.284 1018.28 155 1010 155H990C981.716 155 975 148.284 975 140V115H991.348Z" fill="#FEA900"/>
<path d="M1000 95C1002.76 95 1005 97.2386 1005 100V110C1005 112.761 1002.76 115 1000 115C997.239 115 995 112.761 995 110V100C995 97.2386 997.239 95 1000 95Z" fill="#FEA900"/>
<path d="M1010 85C1018.28 85 1025 91.7157 1025 100V110H1010V100C1010 94.4772 1005.52 90 1000 90C994.477 90 990 94.4772 990 100V110H975V100C975 91.7157 981.716 85 990 85H1010Z" fill="#FEA900"/>
</g>
<g opacity="0.5">
<path d="M930 100C935.523 100 940 104.477 940 110C940 115.523 935.523 120 930 120C924.477 120 920 115.523 920 110C920 104.477 924.477 100 930 100Z" fill="#CD3838"/>
<path d="M945 85C950.523 85 955 89.4772 955 95V130.859L954.951 131.846C954.724 134.135 953.711 136.289 952.07 137.93L937.93 152.07L937.197 152.734C935.418 154.193 933.18 155 930.859 155H895L893.979 154.946C888.936 154.435 885 150.178 885 145V109.141C885 106.82 885.807 104.582 887.266 102.803L887.93 102.07L902.07 87.9297C903.945 86.0547 906.489 85.0004 909.141 85H945ZM909.141 90C907.815 90.0004 906.543 90.5275 905.605 91.4648L892.07 105H915V110H890V145C890 147.761 892.239 150 895 150H930V125H935V147.93L948.535 134.395C949.472 133.457 950 132.185 950 130.859V95C950 94.5519 949.935 94.1193 949.824 93.7061L941.768 101.768L938.232 98.2324L946.289 90.1709C945.878 90.0613 945.446 90 945 90H909.141Z" fill="#CD3838"/>
</g>
<g opacity="0.25">
<path d="M771.465 101.464C773.417 99.512 776.582 99.5119 778.535 101.464L793.535 116.464C795.488 118.417 795.488 121.582 793.535 123.535L778.535 138.535C776.582 140.487 773.417 140.487 771.465 138.535C769.512 136.582 769.512 133.417 771.465 131.464L777.93 125H742.07L748.535 131.464C750.488 133.417 750.488 136.582 748.535 138.535C746.582 140.487 743.417 140.487 741.465 138.535L726.465 123.535C724.512 121.582 724.512 118.417 726.465 116.464L741.465 101.464C743.417 99.5118 746.582 99.5118 748.535 101.464C750.488 103.417 750.488 106.582 748.535 108.535L742.07 115H777.93L771.465 108.535C769.512 106.582 769.512 103.417 771.465 101.464Z" fill="#5A5A5A"/>
</g>
<g opacity="0.25">
<path d="M705 115C710.523 115 715 119.477 715 125C715 130.523 710.523 135 705 135C710.523 135 715 139.477 715 145C715 150.523 710.523 155 705 155C699.477 155 695 150.523 695 145H684.043C682.186 144.999 680.977 143.043 681.807 141.382L685 135L681.807 128.618C680.977 126.957 682.186 125.001 684.043 125H695C695 119.477 699.477 115 705 115Z" fill="#3D64DD"/>
<path d="M655 110C660.523 110 665 114.477 665 120H673.457C674.403 120.001 675.27 120.536 675.693 121.382L680 130L675.693 138.618C675.27 139.464 674.403 139.999 673.457 140H665C665 145.523 660.523 150 655 150C649.477 150 645 145.523 645 140C645 134.477 649.477 130 655 130C649.477 130 645 125.523 645 120C645 114.477 649.477 110 655 110Z" fill="#3D64DD"/>
<path d="M651.465 91.4648C653.417 89.5122 656.583 89.5122 658.535 91.4648L663.535 96.4648C665.488 98.4175 665.488 101.583 663.535 103.535C661.583 105.488 658.417 105.488 656.465 103.535L651.465 98.5352C649.512 96.5825 649.512 93.4175 651.465 91.4648Z" fill="#3D64DD"/>
<path d="M701.465 91.4648C703.417 89.5122 706.583 89.5122 708.535 91.4648C710.488 93.4175 710.488 96.5825 708.535 98.5352L703.535 103.535C701.583 105.488 698.417 105.488 696.465 103.535C694.512 101.583 694.512 98.4175 696.465 96.4648L701.465 91.4648Z" fill="#3D64DD"/>
<path d="M680 80C682.761 80 685 82.2386 685 85V95C685 97.7614 682.761 100 680 100C677.239 100 675 97.7614 675 95V85C675 82.2386 677.239 80 680 80Z" fill="#3D64DD"/>
</g>
<g opacity="0.25">
<path d="M585.215 127.282C586.938 130.452 589.547 133.058 592.715 134.782L585 142.502V150.002C584.999 152.762 582.761 155.002 580 155.002C577.239 155.002 575.001 152.762 575 150.002V145.002H570C567.239 145.002 565.001 142.762 565 140.002C565 137.241 567.239 135.002 570 135.002H577.5L585.215 127.282Z" fill="#2FA139"/>
<path d="M603.042 84.3331C608.066 83.5737 618.441 83.4436 627.5 92.5021C636.557 101.561 636.423 111.932 635.664 116.955C635.36 118.965 634.126 120.652 632.5 121.872L628.081 125.188C619.758 131.429 609.166 133.834 598.965 131.794C593.537 130.708 589.289 126.461 588.203 121.032C587.485 117.44 587.324 113.799 587.681 110.227C589.969 113.13 593.516 115.001 597.5 115.002C604.402 115.001 609.999 109.404 610 102.502C610 95.5993 604.403 90.0033 597.5 90.0021C597.061 90.0021 596.623 90.0214 596.196 90.0655L598.125 87.4972C599.345 85.8716 601.033 84.6377 603.042 84.3331ZM624.141 97.0724C620.236 93.168 615.488 91.5851 613.535 93.5372C611.585 95.4906 613.167 100.239 617.07 104.143C620.974 108.046 625.722 109.628 627.676 107.678C629.628 105.725 628.045 100.977 624.141 97.0724Z" fill="#2FA139"/>
</g>
<g opacity="0.25">
<path d="M522.29 85.0718C530.369 85.6015 538.016 88.9174 543.926 94.4517C549.835 99.9863 553.645 107.401 554.702 115.428C555.759 123.456 553.997 131.604 549.722 138.48C545.446 145.356 538.917 150.54 531.25 153.143C523.583 155.746 515.249 155.609 507.671 152.757C500.093 149.905 493.736 144.511 489.688 137.499C488.308 135.107 489.128 132.048 491.519 130.668C493.91 129.288 496.969 130.108 498.35 132.499C501.241 137.507 505.779 141.359 511.191 143.397C516.605 145.434 522.56 145.53 528.037 143.67C533.513 141.811 538.177 138.112 541.23 133.202C544.284 128.291 545.54 122.47 544.785 116.737C544.03 111.003 541.311 105.705 537.09 101.751C532.869 97.7984 527.407 95.4307 521.636 95.0523C515.865 94.6741 510.14 96.3084 505.439 99.6763C501.759 102.313 498.889 105.891 497.095 109.999H505C507.761 109.999 509.999 112.238 510 114.999C510 117.76 507.761 119.999 505 119.999H485C482.239 119.999 480 117.76 480 114.999V94.9986C480.001 92.2379 482.239 89.9986 485 89.9986C487.761 89.9986 489.999 92.2379 490 94.9986V101.986C492.444 97.9181 495.702 94.355 499.614 91.5513C506.196 86.8351 514.21 84.5422 522.29 85.0718Z" fill="#FEA900"/>
<path d="M525 114.999H535V124.999H520C517.239 124.999 515 122.76 515 119.999V104.999H525V114.999Z" fill="#FEA900"/>
</g>
<g opacity="0.25">
<path d="M475 95V115L435 155H415L475 95Z" fill="#CD3838"/>
<path d="M475 145C475 150.523 470.523 155 465 155H455L475 135V145Z" fill="#CD3838"/>
<path d="M465 85L405 145V125L445 85H465Z" fill="#CD3838"/>
<path d="M405 105V95C405 89.4772 409.477 85 415 85H425L405 105Z" fill="#CD3838"/>
</g>
<g opacity="0.25">
<path d="M280 85C291.046 85 300 93.9543 300 105C300 105.059 299.996 105.117 299.995 105.176C308.478 106.387 315 113.682 315 122.5C315 132.165 307.165 140 297.5 140H285V155H275V140H262.5C252.835 140 245 132.165 245 122.5C245 113.684 251.519 106.389 260 105.176C259.999 105.117 260 105.059 260 105C260 93.9543 268.954 85 280 85Z" fill="#5A5A5A"/>
</g>
<g opacity="0.5">
<path d="M210 107.08C218.83 110.938 225 119.748 225 130C225 143.807 213.807 155 200 155C186.193 155 175 143.807 175 130C175 119.748 181.17 110.938 190 107.08V100H187.5C186.119 100 185 98.8807 185 97.5C185 96.1193 186.119 95 187.5 95H212.5C213.881 95 215 96.1193 215 97.5C215 98.8807 213.881 100 212.5 100H210V107.08Z" fill="#3D64DD"/>
<path d="M210 90H190V85H210V90Z" fill="#3D64DD"/>
</g>
<g opacity="0.75">
<path d="M120 85C125.523 85 130 89.4772 130 95C130 98.6988 127.985 101.918 125 103.647V105H135C137.761 105 140 107.239 140 110C140 112.761 137.761 115 135 115H125V144.487C127.626 143.951 130.16 143.001 132.5 141.65C136.3 139.456 139.456 136.3 141.65 132.5C141.754 132.321 141.866 132.149 141.987 131.987L135 125H155V145L149.233 139.233C146.241 143.781 142.23 147.582 137.5 150.312C132.179 153.384 126.144 155 120 155C113.856 155 107.821 153.384 102.5 150.312C97.7692 147.581 93.7539 143.782 90.7617 139.233L85 145V125H105L98.0078 131.987C98.13 132.15 98.2455 132.32 98.3496 132.5C100.544 136.3 103.7 139.456 107.5 141.65C109.84 143.001 112.374 143.951 115 144.487V115H105C102.239 115 100 112.761 100 110C100 107.239 102.239 105 105 105H115V103.647C112.015 101.918 110 98.6988 110 95C110 89.4772 114.477 85 120 85ZM120 90C117.239 90 115 92.2386 115 95C115 97.7614 117.239 100 120 100C122.761 100 125 97.7614 125 95C125 92.2386 122.761 90 120 90Z" fill="#2FA139"/>
</g>
<path d="M50 105C52.7614 105 55 107.239 55 110V150C55 152.761 52.7614 155 50 155H10C7.23858 155 5 152.761 5 150V110C5 107.239 7.23858 105 10 105H50Z" fill="#FEA900"/>
<path d="M65 85C70.5228 85 75 89.4772 75 95V130.859L74.9512 131.846C74.724 134.135 73.7114 136.289 72.0703 137.93L60 150V142.93L68.5352 134.395C69.4725 133.457 69.9996 132.185 70 130.859V95C70 94.5519 69.9348 94.1193 69.8242 93.7061L58.6035 104.927C57.742 103.469 56.5268 102.252 55.0684 101.392L66.2891 90.1709C65.8776 90.0613 65.446 90 65 90H29.1406C27.8151 90.0004 26.5428 90.5275 25.6055 91.4648L17.0703 100H10L22.0703 87.9297C23.9453 86.0547 26.489 85.0004 29.1406 85H65Z" fill="#FEA900"/>
<path d="M1082.04 74.6533C1081.04 76.0491 1078.96 76.0491 1077.96 74.6533L1067.5 60H1060C1051.72 60 1045 53.2843 1045 45V25C1045 16.7157 1051.72 10 1060 10H1100C1108.28 10 1115 16.7157 1115 25V45C1115 53.2843 1108.28 60 1100 60H1092.5L1082.04 74.6533ZM1080 45C1077.24 45 1075 47.2386 1075 50C1075 52.7614 1077.24 55 1080 55C1082.76 55 1085 52.7614 1085 50C1085 47.2386 1082.76 45 1080 45ZM1080 15C1077.24 15 1075 17.2386 1075 20V35C1075 37.7614 1077.24 40 1080 40C1082.76 40 1085 37.7614 1085 35V20C1085 17.2386 1082.76 15 1080 15Z" fill="#FEA900"/>
<g opacity="0.75">
<path d="M1010 5C1015.52 5 1020 9.47715 1020 15C1020 16.8466 1019.49 18.5719 1018.62 20.0553C1018.39 20.4392 1018.43 20.9325 1018.75 21.2475C1019.06 21.5626 1019.56 21.6024 1019.94 21.3764C1021.42 20.5028 1023.15 20 1025 20C1030.52 20 1035 24.4772 1035 30C1035 35.5228 1030.52 40 1025 40C1022.01 40 1019.33 38.6767 1017.5 36.5918L996.592 57.4951C998.677 59.3278 1000 62.006 1000 65C1000 70.5228 995.523 75 990 75C984.477 75 980 70.5228 980 65C980 63.153 980.503 61.4244 981.376 59.94C981.602 59.556 981.563 59.0626 981.248 58.7475C980.932 58.4325 980.439 58.3926 980.055 58.6189C978.572 59.4932 976.847 60 975 60C969.477 60 965 55.5228 965 50C965 44.4772 969.477 40 975 40C977.992 40 980.667 41.3214 982.5 43.4033L1003.4 22.5C1001.32 20.6674 1000 17.9916 1000 15C1000 9.47715 1004.48 5 1010 5Z" fill="#CD3838"/>
</g>
<g opacity="0.5">
<path d="M950 15V20H955V30H950V50H955V60H950V70H935V60H927.5V70H912.5V60H905V70H890V60H885V50H890V30H885V20H890V15L897.5 5L905 15V20H912.5V15L920 5L927.5 15V20H935V15L942.5 5L950 15ZM905 30V50H912.5V30H905ZM927.5 30V50H935V30H927.5Z" fill="#A85DE9"/>
</g>
<g opacity="0.5">
<path d="M795 39.9983C797.761 39.9983 799.999 42.2376 800 44.9983V64.9983C800 67.7598 797.761 69.9983 795 69.9983C792.239 69.9983 790 67.7598 790 64.9983V58.011C788.143 61.1024 785.816 63.9085 783.076 66.3118C777.872 70.8756 771.433 73.7967 764.57 74.7005C757.708 75.6039 750.73 74.451 744.521 71.3899C738.313 68.3282 733.149 63.4931 729.688 57.4983C728.308 55.1072 729.128 52.0477 731.519 50.6673C733.91 49.2873 736.969 50.1079 738.35 52.4983C740.821 56.7796 744.507 60.2332 748.94 62.4202C753.375 64.6069 758.36 65.4286 763.262 64.7835C768.164 64.1381 772.767 62.0524 776.484 58.7923C779.258 56.3592 781.445 53.3521 782.91 49.9983H775C772.239 49.9983 770 47.7597 770 44.9983C770.001 42.2376 772.239 39.9983 775 39.9983H795Z" fill="#3D64DD"/>
<path d="M755.43 5.29618C762.292 4.39278 769.271 5.54591 775.479 8.60672C781.687 11.6682 786.851 16.5039 790.312 22.4983C791.693 24.8894 790.872 27.9486 788.481 29.3294C786.09 30.7101 783.031 29.8898 781.65 27.4983C779.178 23.2174 775.493 19.7632 771.06 17.5765C766.626 15.39 761.64 14.5682 756.738 15.2132C751.836 15.8585 747.233 17.9446 743.516 21.2044C740.742 23.637 738.555 26.6452 737.09 29.9983H745C747.761 29.9983 749.999 32.2376 750 34.9983C750 37.7597 747.761 39.9983 745 39.9983H725C722.239 39.9983 720 37.7597 720 34.9983V14.9983C720.001 12.2376 722.239 9.99833 725 9.99833C727.761 9.99833 729.999 12.2376 730 14.9983V21.9807C731.856 18.8914 734.185 16.0868 736.924 13.6848C742.128 9.12139 748.568 6.19993 755.43 5.29618Z" fill="#3D64DD"/>
</g>
<g opacity="0.5">
<path d="M685 45C690.523 45 695 49.4772 695 55C695 60.5228 690.523 65 685 65H655C649.477 65 645 60.5228 645 55C645 49.4772 649.477 45 655 45H685ZM655 50C652.239 50 650 52.2386 650 55C650 57.7614 652.239 60 655 60C657.761 60 660 57.7614 660 55C660 52.2386 657.761 50 655 50ZM670 50C667.239 50 665 52.2386 665 55C665 57.7614 667.239 60 670 60C672.761 60 675 57.7614 675 55C675 52.2386 672.761 50 670 50ZM685 50C682.239 50 680 52.2386 680 55C680 57.7614 682.239 60 685 60C687.761 60 690 57.7614 690 55C690 52.2386 687.761 50 685 50Z" fill="#2FA139"/>
<path d="M705 55L715 60V65H705C699.477 65 695 60.5228 695 55V45H700L705 55Z" fill="#2FA139"/>
<path d="M671.396 15C673.548 15.0001 675.457 16.3771 676.138 18.418L680 30L687.236 33.6182C688.93 34.4652 690 36.1971 690 38.0908V40H650V20C650 17.2386 652.239 15 655 15H671.396ZM655 30H675L672.5 20H655V30Z" fill="#2FA139"/>
</g>
<g opacity="0.5">
<path d="M595 75H565V72.0703C565 70.7445 565.527 69.4727 566.465 68.5352L588.535 46.4648C589.473 45.5273 590.745 45.0002 592.07 45H595V75Z" fill="#FEA900"/>
<path d="M635 70C635 72.7614 632.761 75 630 75H610C607.239 75 605 72.7614 605 70V58.0029L612.5 63.0029L620 58.0029L627.5 63.0029L635 58.0029V70Z" fill="#FEA900"/>
<path d="M630 45C632.761 45 635 47.2386 635 50V51.9922L633.613 52.9199L627.5 56.9922L620 51.9971L612.5 56.9922L606.387 52.9199L605 51.9922V50C605 47.2386 607.239 45 610 45H630Z" fill="#FEA900"/>
<path d="M590 5C592.761 5 595 7.23858 595 10V30C595 32.7614 592.761 35 590 35H570C567.239 35 565 32.7614 565 30V10C565 7.23858 567.239 5 570 5H590Z" fill="#FEA900"/>
<path d="M607.93 5C609.255 5.0002 610.527 5.52734 611.465 6.46484L633.535 28.5352C634.473 29.4727 635 30.7445 635 32.0703V35H605V5H607.93Z" fill="#FEA900"/>
</g>
<g opacity="0.5">
<path d="M518.057 34.8682C520.753 36.8594 523.136 39.2431 525.127 41.9385L502.066 64.9951L503.536 66.4648C505.488 68.4174 505.488 71.5826 503.536 73.5352C501.583 75.4877 498.418 75.4876 496.465 73.5352L486.465 63.5352C484.513 61.5825 484.513 58.4175 486.465 56.4648C488.418 54.5124 491.583 54.5123 493.536 56.4648L494.995 57.9248L518.057 34.8682Z" fill="#CD3838"/>
<path d="M545.254 5C550.636 5.00019 555 9.36422 555 14.7461C555 21.384 552.741 27.8244 548.594 33.0078L537.237 47.2021C536.224 48.467 534.229 48.1976 533.589 46.709C531.175 41.0763 527.474 36.1551 522.852 32.29C522.448 31.9559 522.038 31.6285 521.621 31.3086C519.078 29.3521 516.288 27.6955 513.291 26.4111C511.803 25.7715 511.533 23.7766 512.798 22.7637L526.993 11.4062C532.176 7.25963 538.616 5.00027 545.254 5ZM546.768 13.2324C545.792 12.2562 544.209 12.2563 543.233 13.2324L528.233 28.2324C527.257 29.2087 527.257 30.7913 528.233 31.7676C529.209 32.7437 530.792 32.7438 531.768 31.7676L546.768 16.7676C547.744 15.7913 547.744 14.2087 546.768 13.2324Z" fill="#CD3838"/>
</g>
<g opacity="0.5">
<path d="M425 40C425 43.1281 424.521 46.1443 423.633 48.9795L419.512 46.6016L417.012 50.9277L421.719 53.6426C419.804 57.3858 417.128 60.6735 413.892 63.3008C408.365 57.112 405 48.9505 405 40C405 31.0482 408.363 22.8834 413.892 16.6943C417.131 19.3233 419.808 22.6157 421.724 26.3623L417.007 29.0869L419.512 33.4131L423.638 31.0303C424.524 33.8625 425 36.8757 425 40Z" fill="#A85DE9"/>
<path d="M462.5 66.8018C456.416 71.915 448.57 75 440 75C431.43 75 423.584 71.915 417.5 66.8018C421.005 63.8562 423.922 60.2376 426.055 56.1426L430 58.4277L432.5 54.1016L428.052 51.5283C429.311 47.9179 430 44.0397 430 40C430 35.9635 429.309 32.0894 428.052 28.4814L432.5 25.9131L430 21.5869L426.06 23.8623C423.926 19.764 421.008 16.1407 417.5 13.1934C423.584 8.08135 431.432 5 440 5C448.568 5 456.416 8.08135 462.5 13.1934C458.931 16.1917 455.976 19.8911 453.833 24.0771L449.512 21.5869L447.012 25.9131L451.87 28.7158C450.664 32.2573 450 36.0505 450 40C450 43.9517 450.668 47.7459 451.875 51.2891L447.012 54.1016L449.512 58.4277L453.838 55.9277C455.98 60.1104 458.934 63.8051 462.5 66.8018Z" fill="#A85DE9"/>
<path d="M475 40C475 48.9493 471.639 57.1123 466.113 63.3008C462.813 60.6222 460.096 57.2577 458.174 53.4229L462.5 50.9277L460 46.5967L456.299 48.7354C455.459 45.9708 455 43.0392 455 40C455 36.963 455.455 34.0324 456.294 31.2695L460 33.4131L462.5 29.0869L458.169 26.582C460.092 22.7438 462.81 19.3746 466.113 16.6943C471.641 22.8831 475 31.0494 475 40Z" fill="#A85DE9"/>
</g>
<g opacity="0.5">
<path d="M375 5C386.046 5 395 13.9543 395 25C395 36.0457 386.046 45 375 45C372.066 45 369.283 44.3623 366.772 43.2275L360 50V60H350V70H340L335 75H325V65L356.772 33.2275C355.638 30.7174 355 27.9338 355 25C355 13.9543 363.954 5 375 5ZM380 15C377.239 15 375 17.2386 375 20C375 22.7614 377.239 25 380 25C382.761 25 385 22.7614 385 20C385 17.2386 382.761 15 380 15Z" fill="#5A5A5A"/>
</g>
<g opacity="0.5">
<path d="M280 15C282.071 15 283.75 16.6789 283.75 18.75C283.75 20.2811 282.829 21.5903 281.514 22.1729C281.188 22.5347 280.568 23.4179 279.893 25.1074C278.463 28.6803 277.5 34.0405 277.5 40C277.5 40.8264 277.518 41.6412 277.554 42.4414C278.356 42.4773 279.172 42.5 280 42.5C285.96 42.5 291.32 41.5366 294.893 40.1074C296.582 39.4318 297.46 38.8075 297.822 38.4814C298.405 37.1676 299.72 36.25 301.25 36.25C303.321 36.25 305 37.9292 305 40C305 40.6555 304.839 41.3116 304.517 41.958C304.197 42.5981 303.718 43.2268 303.096 43.8281C301.851 45.0295 300.019 46.133 297.676 47.0703C292.988 48.9453 286.63 50 280 50C279.485 50 278.973 49.9784 278.462 49.9658C278.848 51.8331 279.335 53.4988 279.893 54.8926C280.567 56.5779 281.187 57.4587 281.514 57.8223C282.83 58.4044 283.75 59.7182 283.75 61.25C283.75 63.3211 282.071 65 280 65C279.344 65 278.689 64.8393 278.042 64.5166C277.402 64.1967 276.773 63.7184 276.172 63.0957C274.97 61.8512 273.867 60.0191 272.93 57.6758C271.962 55.2569 271.216 52.3931 270.718 49.2773C267.604 48.7789 264.742 48.0371 262.324 47.0703C259.981 46.133 258.149 45.0295 256.904 43.8281C256.282 43.2268 255.803 42.5981 255.483 41.958C255.161 41.3116 255 40.6555 255 40C255 37.9292 256.679 36.25 258.75 36.25C260.279 36.25 261.589 37.1686 262.173 38.4814C262.533 38.8069 263.414 39.4301 265.107 40.1074C266.5 40.6644 268.164 41.1472 270.029 41.5332C270.017 41.0241 270 40.513 270 40C270 33.3702 271.055 27.0125 272.93 22.3242C273.867 19.9809 274.97 18.1488 276.172 16.9043C276.773 16.2816 277.402 15.8033 278.042 15.4834L278.525 15.2734C279.014 15.0912 279.507 15 280 15Z" fill="#3D64DD"/>
<path d="M306.465 6.46484C308.417 4.51222 311.583 4.51222 313.535 6.46484C315.488 8.41747 315.488 11.5825 313.535 13.5352L308.535 18.5352C308.366 18.7046 308.179 18.8492 307.993 18.9893C312.392 24.8408 315 32.1156 315 40C315 59.33 299.33 75 280 75C272.116 75 264.841 72.3922 258.989 67.9932C258.849 68.1793 258.705 68.3657 258.535 68.5352L253.535 73.5352C251.583 75.4878 248.417 75.4878 246.465 73.5352C244.512 71.5825 244.512 68.4175 246.465 66.4648L251.465 61.4648C251.634 61.2956 251.816 61.1458 252.002 61.0059C247.605 55.1552 245 47.8819 245 40C245 20.67 260.67 5 280 5C287.882 5 295.155 7.60544 301.006 12.002C301.146 11.8161 301.296 11.6341 301.465 11.4648L306.465 6.46484ZM280 12.5C264.812 12.5 252.5 24.8122 252.5 40C252.5 55.1878 264.812 67.5 280 67.5C295.188 67.5 307.5 55.1878 307.5 40C307.5 24.8122 295.188 12.5 280 12.5Z" fill="#3D64DD"/>
</g>
<g opacity="0.5">
<path d="M205 25.6055V25C205 22.2386 202.761 20 200 20C197.412 20 195.281 21.9667 195.024 24.4873L194.976 25.5127C194.719 28.0333 192.588 30 190 30C187.239 30 185 27.7614 185 25C185 16.7157 191.716 10 200 10C208.284 10 215 16.7157 215 25V25.6055C215 29.7441 213.356 33.7139 210.43 36.6406L207.407 39.6582L233.203 61.1572C234.82 62.5049 235.419 64.7249 234.702 66.7041C233.985 68.6826 232.105 70 230 70H170C167.895 70 166.015 68.6826 165.298 66.7041C164.581 64.7249 165.18 62.5049 166.797 61.1572L196.65 36.2793L203.359 29.5703C204.41 28.519 205 27.0919 205 25.6055ZM183.813 60H216.187L200 46.5088L183.813 60Z" fill="#2FA139"/>
</g>
<g opacity="0.75">
<path d="M120 35.0014C122.761 35.0014 125 37.24 125 40.0014V50.0014C125 57.2722 122.815 63.0924 120.64 67.0815C119.551 69.0763 118.453 70.6352 117.607 71.7152C117.113 72.3468 115.518 74.1492 116.035 73.5365C114.083 75.488 110.917 75.488 108.965 73.5365C107.013 71.5842 107.013 68.4189 108.965 66.4662C109.165 66.2537 110.515 64.7616 111.86 62.2963C113.434 59.411 115 55.2281 115 50.0014V40.0014C115 37.24 117.239 35.0014 120 35.0014Z" fill="#FEA900"/>
<path d="M120 20.0014C131.046 20.0014 140 28.9557 140 40.0014V45.0014C139.999 47.762 137.761 50.0014 135 50.0014C132.239 50.0014 130.001 47.762 130 45.0014V40.0014C130 34.4785 125.523 30.0014 120 30.0014C114.478 30.0014 110.001 34.4786 110 40.0014V45.0014C109.999 54.1975 104.834 64.5488 94.6924 69.4936C92.2115 70.7025 89.2188 69.6732 88.0078 67.1938C86.7983 64.7125 87.8274 61.72 90.3076 60.5092C96.6433 57.4209 99.9994 50.8038 100 45.0014V40.0014C100.001 28.9566 108.954 20.0014 120 20.0014Z" fill="#FEA900"/>
<path d="M130.527 57.765C131.762 55.2952 134.766 54.2938 137.236 55.5287C139.706 56.7639 140.707 59.768 139.473 62.2377L136.973 67.2377C135.737 69.7064 132.733 70.7082 130.264 69.474C127.794 68.2393 126.793 65.2347 128.027 62.765L130.527 57.765Z" fill="#FEA900"/>
<path d="M106.606 7.6674C113.001 5.01855 120.037 4.32517 126.826 5.67521C133.615 7.02573 139.856 10.3556 144.751 15.2504C146.703 17.203 146.703 20.3732 144.751 22.3256C142.799 24.2771 139.628 24.2771 137.676 22.3256C134.18 18.8294 129.727 16.4446 124.878 15.4799C120.029 14.5153 115.002 15.0138 110.435 16.9057C105.867 18.7976 101.961 21.9996 99.2139 26.1098C96.4673 30.2208 95 35.0573 95 40.0014C94.9991 42.762 92.7609 45.0014 90 45.0014C87.2391 45.0014 85.0009 42.762 85 40.0014C85 33.08 87.0536 26.3132 90.8984 20.558C94.7441 14.8026 100.211 10.3165 106.606 7.6674Z" fill="#FEA900"/>
<path d="M147.686 27.4086C150.352 26.6948 153.094 28.2769 153.809 30.9438C154.6 33.8974 155 36.9437 155 40.0014C154.999 42.762 152.761 45.0014 150 45.0014C147.239 45.0014 145.001 42.762 145 40.0014C145 37.8176 144.715 35.6411 144.15 33.5317C143.436 30.8645 145.018 28.1235 147.686 27.4086Z" fill="#FEA900"/>
</g>
<path d="M45 10H55V20H45V30.2588C48.1765 27.0155 52.6017 25 57.5 25C67.165 25 75 32.835 75 42.5C75 51.316 68.4805 58.6061 60 59.8193V62.5L65 67.5V75H15V67.5L20 62.5V59.8193C11.5195 58.6061 5 51.316 5 42.5C5 32.835 12.835 25 22.5 25C27.3983 25 31.8235 27.0155 35 30.2588V20H25V10H35V0H45V10Z" fill="#CD3838"/>
<g opacity="0.25">
<path d="M294.473 222.236C297.86 223.93 300 227.394 300 231.182V235H260V231.182C260 227.394 262.14 223.93 265.527 222.236L270 220H290L294.473 222.236Z" fill="#A85DE9"/>
<path d="M290 165C298.284 165 305 171.716 305 180V190C307.761 190 310 192.239 310 195C310 197.588 308.033 199.719 305.513 199.976L305 200C305 208.284 298.284 215 290 215H270C261.716 215 255 208.284 255 200L254.487 199.976C251.967 199.719 250 197.588 250 195C250 192.239 252.239 190 255 190V180C255 171.716 261.716 165 270 165H290ZM270 200C270 205.523 274.477 210 280 210C285.523 210 290 205.523 290 200H285C285 202.761 282.761 205 280 205C277.239 205 275 202.761 275 200H270ZM267.5 185C266.119 185 265 186.119 265 187.5V192.5C265 193.881 266.119 195 267.5 195C268.881 195 270 193.881 270 192.5V187.5C270 186.119 268.881 185 267.5 185ZM292.5 185C291.119 185 290 186.119 290 187.5V192.5C290 193.881 291.119 195 292.5 195C293.881 195 295 193.881 295 192.5V187.5C295 186.119 293.881 185 292.5 185Z" fill="#A85DE9"/>
</g>
<g opacity="0.25">
<path d="M872.5 165C873.881 165 875 166.119 875 167.5V171.099C875 178.775 868.775 185 861.099 185C856.452 184.999 852.114 182.675 849.536 178.809L846.255 173.892C844.635 171.462 841.909 170.001 838.989 170C835.406 170 832.5 172.906 832.5 176.489V180H845V190C851.072 194.561 855 201.821 855 210C855 223.807 843.807 235 830 235C816.193 235 805 223.807 805 210C805 201.821 808.928 194.561 815 190V180H827.5V176.489C827.5 170.145 832.645 165 838.989 165C843.581 165.001 847.868 167.298 850.415 171.118L853.696 176.035C855.346 178.51 858.124 179.999 861.099 180C866.014 180 870 176.014 870 171.099V167.5C870 166.119 871.119 165 872.5 165Z" fill="#CD3838"/>
</g>
<g opacity="0.25">
<path d="M840 295C844.694 295 849.144 295.336 853.218 295.903C852.311 299.753 851.101 303.183 849.668 306.05C848.028 309.33 846.213 311.656 844.463 313.105C842.748 314.526 841.241 315 840 315C838.759 315 837.252 314.526 835.537 313.105C833.787 311.656 831.972 309.33 830.332 306.05C828.899 303.183 827.684 299.754 826.777 295.903C830.852 295.336 835.305 295 840 295Z" fill="#FEA900"/>
<path d="M821.841 296.729C822.829 301.022 824.185 304.938 825.859 308.286C826.769 310.106 827.766 311.738 828.828 313.169C821.65 310.752 815.517 306.076 811.27 299.98C811.948 299.674 812.682 299.373 813.472 299.077C815.899 298.167 818.716 297.37 821.841 296.729Z" fill="#FEA900"/>
<path d="M858.154 296.729C861.281 297.37 864.1 298.166 866.528 299.077C867.316 299.373 868.048 299.675 868.726 299.98C864.478 306.076 858.346 310.753 851.167 313.169C852.23 311.738 853.23 310.107 854.141 308.286C855.814 304.938 857.166 301.022 858.154 296.729Z" fill="#FEA900"/>
<path d="M808.701 264.331C812.029 265.897 816.172 267.214 820.894 268.179C820.302 272.001 820 275.985 820 280C820 284.013 820.303 287.996 820.894 291.816C816.172 292.781 812.029 294.098 808.701 295.664C806.337 290.95 805 285.632 805 280C805 274.366 806.336 269.046 808.701 264.331Z" fill="#FEA900"/>
<path d="M871.294 264.331C873.659 269.046 875 274.365 875 280C875 285.633 873.658 290.95 871.294 295.664C867.966 294.098 863.823 292.781 859.102 291.816C859.693 287.996 860 284.013 860 280C860 275.985 859.693 272.001 859.102 268.179C863.824 267.214 867.966 265.897 871.294 264.331Z" fill="#FEA900"/>
<path d="M854.175 269.028C854.717 272.56 855 276.259 855 280C855 283.739 854.717 287.436 854.175 290.967C849.769 290.341 844.991 290 840 290C835.007 290 830.227 290.34 825.82 290.967C825.278 287.436 825 283.739 825 280C825 276.26 825.278 272.56 825.82 269.028C830.228 269.655 835.007 270 840 270C844.991 270 849.769 269.655 854.175 269.028Z" fill="#FEA900"/>
<path d="M840 245C841.241 245 842.748 245.474 844.463 246.895C846.213 248.344 848.028 250.67 849.668 253.95C851.101 256.816 852.311 260.244 853.218 264.092C849.144 264.659 844.694 265 840 265C835.304 265 830.852 264.659 826.777 264.092C827.684 260.243 828.899 256.816 830.332 253.95C831.972 250.67 833.787 248.344 835.537 246.895C837.252 245.474 838.759 245 840 245Z" fill="#FEA900"/>
<path d="M828.828 246.826C827.765 248.258 826.77 249.893 825.859 251.714C824.186 255.061 822.829 258.975 821.841 263.267C818.716 262.626 815.899 261.833 813.472 260.923C812.681 260.626 811.948 260.321 811.27 260.015C815.517 253.92 821.651 249.242 828.828 246.826Z" fill="#FEA900"/>
<path d="M851.167 246.826C858.345 249.242 864.477 253.92 868.726 260.015C868.048 260.32 867.317 260.627 866.528 260.923C864.1 261.834 861.281 262.625 858.154 263.267C857.166 258.975 855.814 255.06 854.141 251.714C853.23 249.892 852.231 248.258 851.167 246.826Z" fill="#FEA900"/>
</g>
<defs>
<clipPath id="clip0_346_13262">
<rect width="80" height="80" fill="white" transform="translate(0 160)"/>
</clipPath>
</defs>
</svg>
